<svg width="1024" height="1024" viewBox="0 0 1024 1024" fill="none" xmlns="http://www.w3.org/2000/svg">
<rect width="1024" height="1024" fill="#333333"/>
<path d="M230.379 130.819L309.165 93.0767H347.379L439.374 136.952L494.572 235.08L545.995 177.996H585.152L721.023 174.222L759.237 252.064L749.329 321.415L682.338 389.35L626.197 356.798L578.076 353.024L533.257 376.14L379.931 491.253L420.504 537.959L438.903 533.241L528.54 586.551L669.6 634.672H718.664L730.458 756.39L739.422 816.777L785.656 829.986L789.902 922.925" stroke="white" stroke-opacity="0.58" stroke-width="3" stroke-linecap="round"/>
<rect x="220" y="120.911" width="17.9274" height="17.9274" rx="8.96369" fill="white"/>
<rect x="305.863" y="87.8872" width="10.379" height="10.379" rx="5.1895" fill="white"/>
<rect x="340.774" y="86" width="11.3226" height="11.3226" rx="5.66128" fill="white"/>
<rect x="435.128" y="132.234" width="10.379" height="10.379" rx="5.1895" fill="white"/>
<rect x="484.193" y="224.702" width="17.9274" height="17.9274" rx="8.96369" fill="white"/>
<rect x="539.862" y="171.862" width="14.1532" height="14.1532" rx="7.0766" fill="white"/>
<rect x="578.548" y="168.088" width="13.2096" height="13.2096" rx="6.60482" fill="white"/>
<rect x="714.418" y="169.032" width="11.3226" height="11.3226" rx="5.66128" fill="white"/>
<rect x="754.047" y="247.347" width="9.43546" height="9.43546" rx="4.71773" fill="white"/>
<rect x="745.555" y="318.112" width="6.60482" height="6.60482" rx="3.30241" fill="white"/>
<rect x="676.676" y="383.217" width="11.3226" height="11.3226" rx="5.66128" fill="white"/>
<rect x="620.063" y="350.193" width="13.2096" height="13.2096" rx="6.60482" fill="white"/>
<rect x="573.83" y="349.25" width="8.49191" height="8.49191" rx="4.24596" fill="white"/>
<rect x="528.54" y="371.894" width="9.43546" height="9.43546" rx="4.71773" fill="white"/>
<rect x="372.854" y="485.12" width="13.2096" height="13.2096" rx="6.60482" fill="white"/>
<rect x="414.37" y="533.241" width="11.3226" height="11.3226" rx="5.66128" fill="white"/>
<rect x="431.354" y="526.636" width="14.1532" height="14.1532" rx="7.0766" fill="white"/>
<rect x="523.822" y="582.305" width="8.49191" height="8.49191" rx="4.24596" fill="white"/>
<rect x="659.693" y="625.708" width="17.9274" height="17.9274" rx="8.96369" fill="white"/>
<rect x="713.475" y="629.482" width="10.379" height="10.379" rx="5.1895" fill="white"/>
<rect x="725.741" y="751.2" width="9.43546" height="9.43546" rx="4.71773" fill="white"/>
<rect x="733.289" y="809.7" width="14.1532" height="14.1532" rx="7.0766" fill="white"/>
<rect x="778.579" y="823.853" width="14.1532" height="14.1532" rx="7.0766" fill="white"/>
<rect x="776.692" y="909.716" width="27.3628" height="27.3628" rx="13.6814" fill="white"/>
</svg>
